<svg width="24" height="24" viewBox="0 0 24 24" fill="none" xmlns="http://www.w3.org/2000/svg">
<path d="M21.4163 8.37514L12.4163 2.37514C12.293 2.29291 12.1482 2.24902 12 2.24902C11.8518 2.24902 11.707 2.29291 11.5837 2.37514L2.58375 8.37514C2.48101 8.44368 2.39679 8.53654 2.33857 8.64546C2.28034 8.75439 2.24992 8.876 2.25 8.99951V18.7495C2.25 19.1473 2.40804 19.5289 2.68934 19.8102C2.97064 20.0915 3.35218 20.2495 3.75 20.2495H20.25C20.6478 20.2495 21.0294 20.0915 21.3107 19.8102C21.592 19.5289 21.75 19.1473 21.75 18.7495V8.99951C21.7501 8.876 21.7197 8.75439 21.6614 8.64546C21.6032 8.53654 21.519 8.44368 21.4163 8.37514ZM12 3.90045L19.6791 9.02014L13.3978 13.4995H10.6041L4.32281 9.02014L12 3.90045ZM3.75 18.7495V10.4554L9.92813 14.8617C10.0553 14.9526 10.2077 15.0014 10.3641 15.0014H13.6359C13.7923 15.0014 13.9447 14.9526 14.0719 14.8617L20.25 10.4554V18.7495H3.75Z" fill="#0D6EFD"/>
</svg>
